<?xml version="1.0" encoding="utf-8"?><svg xmlns="http://www.w3.org/2000/svg" xmlns:xlink="http://www.w3.org/1999/xlink"><symbol viewBox="0 0 24 24" id="arrow" xmlns="http://www.w3.org/2000/svg"><path d="M11 17l-5-5 5-5m7 10l-5-5 5-5"/></symbol><symbol viewBox="0 0 24 24" id="map" xmlns="http://www.w3.org/2000/svg"><path d="M12.43 10.515a1.086 1.086 0 100-2.171 1.086 1.086 0 000 2.171z"/><path d="M12.43 4C9.435 4 7 6.33 7 9.192c0 1.363.621 3.175 1.847 5.387.984 1.776 2.122 3.383 2.714 4.182a1.077 1.077 0 001.738 0c.591-.8 1.73-2.405 2.715-4.182 1.223-2.21 1.844-4.024 1.844-5.387C17.858 6.329 15.423 4 12.43 4zm0 7.6a2.172 2.172 0 110-4.343 2.172 2.172 0 010 4.344z"/></symbol><symbol viewBox="0 0 22 20" id="star" xmlns="http://www.w3.org/2000/svg"><path d="M10.383.464a.5.5 0 01.95 0l2.107 6.482a.5.5 0 00.476.346h6.816a.5.5 0 01.294.904l-5.514 4.007a.5.5 0 00-.182.559l2.106 6.483a.5.5 0 01-.77.559l-5.514-4.007a.5.5 0 00-.587 0L5.05 19.804a.5.5 0 01-.77-.56l2.107-6.482a.5.5 0 00-.182-.56L.691 8.197a.5.5 0 01.294-.904H7.8a.5.5 0 00.475-.346L10.383.464z"/></symbol></svg>